# xmcd CD database file
#
# Track frame offsets:
#	150
#	12961
#	28125
#	41000
#
# Disc length: 717 seconds
#
# Revision: 2
# Processed by: cddbd v1.4b41PL1 Copyright (c) Steve Scherf et al.
# Submitted via: Feurio! 1.58ß - http://www.feurio.com
#
DISCID=2a02cb04,3202cb04
DTITLE=The Pusjkins - Girlfriend
DYEAR=1900
DGENRE=
TTITLE0=Girlfriend
TTITLE1=Girlfriend
TTITLE2=Feebleminded
TTITLE3=Loss of an eye
EXTD=
EXTT0=
EXTT1=
EXTT2=
EXTT3=
PLAYORDER=
